<svg xmlns="http://www.w3.org/2000/svg" xmlns:xlink="http://www.w3.org/1999/xlink" width="40" height="40" preserveAspectRatio="xMidYMid meet" viewBox="0 0 1024 1024" style="-ms-transform: rotate(360deg); -webkit-transform: rotate(360deg); transform: rotate(360deg);"><path d="M533 661q-7 7-9 15t0 16.5t9 14.5q4 4 10 6.5t12 2.5q13 0 23-9l189-194l-189-194q-10-10-23-10t-22 10q-4 3-6 6.5t-3 7.5t-1 8t1 8t3 8t6 7l115 116H32q-13 0-22.5 9T0 511.5t9.5 23T32 544h618zM960 0H384q-17 0-32 8.5T328.5 32T320 64v288h65V103q0-10 5-19t14-14.5t19-5.5h497q16 0 27.5 11.5T959 103l1 818q0 16-11.5 27.5T921 960H423q-16 0-27-11.5T385 921V671h-65v289q0 27 19 45.5t45 18.5h576q27 0 45.5-18.5T1024 960V64q0-39-35-57q-14-7-29-7z" fill="#cadada"/><rect x="0" y="0" width="50" height="50" fill="rgba(0, 0, 0, 0)" /></svg>